<svg width="15" height="13" viewBox="0 0 15 13" fill="none" xmlns="http://www.w3.org/2000/svg">
<path d="M13.5 0H1.5C0.673 0 0 0.624929 0 1.39286V8.82143C0 9.58936 0.673 10.2143 1.5 10.2143H3V12.5357C3 12.7145 3.1105 12.8765 3.283 12.954C3.3525 12.9847 3.4265 13 3.5 13C3.6115 13 3.722 12.9656 3.8125 12.8983L7.4255 10.2143H13.5C14.327 10.2143 15 9.58936 15 8.82143V1.39286C15 0.624929 14.327 0 13.5 0ZM7.5 6.5H3.5C3.2235 6.5 3 6.292 3 6.03571C3 5.77943 3.2235 5.57143 3.5 5.57143H7.5C7.7765 5.57143 8 5.77943 8 6.03571C8 6.292 7.7765 6.5 7.5 6.5ZM11.5 4.64286H3.5C3.2235 4.64286 3 4.43486 3 4.17857C3 3.92229 3.2235 3.71429 3.5 3.71429H11.5C11.7765 3.71429 12 3.92229 12 4.17857C12 4.43486 11.7765 4.64286 11.5 4.64286Z" fill="white"/>
</svg>
